<mxfile host="app.diagrams.net" modified="2023-10-15T10:22:42.588Z" agent="Mozilla/5.0 (Windows NT 10.0; Win64; x64) AppleWebKit/537.36 (KHTML, like Gecko) Chrome/118.0.0.0 Safari/537.36" etag="oqW3DUjcJgiAPdunN_38" version="22.0.4" type="github">
  <diagram name="Сторінка-1" id="kfaYCaIMH_Hj41CmXbZO">
    <mxGraphModel dx="1969" dy="882" grid="1" gridSize="10" guides="1" tooltips="1" connect="1" arrows="1" fold="1" page="1" pageScale="1" pageWidth="827" pageHeight="1169" math="0" shadow="0">
      <root>
        <mxCell id="0" />
        <mxCell id="1" parent="0" />
        <mxCell id="slGBocTgLF8m4l2l_OkK-3" style="edgeStyle=orthogonalEdgeStyle;rounded=0;orthogonalLoop=1;jettySize=auto;html=1;entryX=0.5;entryY=0;entryDx=0;entryDy=0;" edge="1" parent="1" source="slGBocTgLF8m4l2l_OkK-1" target="slGBocTgLF8m4l2l_OkK-2">
          <mxGeometry relative="1" as="geometry" />
        </mxCell>
        <mxCell id="slGBocTgLF8m4l2l_OkK-1" value="&lt;font style=&quot;font-size: 14px;&quot;&gt;Початок&lt;/font&gt;" style="ellipse;whiteSpace=wrap;html=1;" vertex="1" parent="1">
          <mxGeometry x="270" y="20" width="120" height="80" as="geometry" />
        </mxCell>
        <mxCell id="slGBocTgLF8m4l2l_OkK-13" value="" style="edgeStyle=orthogonalEdgeStyle;rounded=0;orthogonalLoop=1;jettySize=auto;html=1;" edge="1" parent="1" source="slGBocTgLF8m4l2l_OkK-2" target="slGBocTgLF8m4l2l_OkK-11">
          <mxGeometry relative="1" as="geometry" />
        </mxCell>
        <mxCell id="slGBocTgLF8m4l2l_OkK-2" value="&lt;font style=&quot;font-size: 14px;&quot;&gt;Введення N&lt;/font&gt;" style="shape=parallelogram;perimeter=parallelogramPerimeter;whiteSpace=wrap;html=1;fixedSize=1;" vertex="1" parent="1">
          <mxGeometry x="270" y="160" width="120" height="60" as="geometry" />
        </mxCell>
        <mxCell id="slGBocTgLF8m4l2l_OkK-7" style="edgeStyle=orthogonalEdgeStyle;rounded=0;orthogonalLoop=1;jettySize=auto;html=1;exitX=0.5;exitY=1;exitDx=0;exitDy=0;entryX=0.5;entryY=0;entryDx=0;entryDy=0;" edge="1" parent="1" source="slGBocTgLF8m4l2l_OkK-4">
          <mxGeometry relative="1" as="geometry">
            <mxPoint x="330" y="460" as="targetPoint" />
          </mxGeometry>
        </mxCell>
        <mxCell id="slGBocTgLF8m4l2l_OkK-4" value="&lt;font style=&quot;font-size: 14px;&quot;&gt;result =&amp;nbsp; 1&lt;/font&gt;" style="rounded=0;whiteSpace=wrap;html=1;" vertex="1" parent="1">
          <mxGeometry x="270" y="360" width="120" height="60" as="geometry" />
        </mxCell>
        <mxCell id="slGBocTgLF8m4l2l_OkK-10" value="" style="edgeStyle=orthogonalEdgeStyle;rounded=0;orthogonalLoop=1;jettySize=auto;html=1;" edge="1" parent="1" source="slGBocTgLF8m4l2l_OkK-8" target="slGBocTgLF8m4l2l_OkK-9">
          <mxGeometry relative="1" as="geometry" />
        </mxCell>
        <mxCell id="slGBocTgLF8m4l2l_OkK-39" style="edgeStyle=orthogonalEdgeStyle;rounded=0;orthogonalLoop=1;jettySize=auto;html=1;entryX=0.5;entryY=0;entryDx=0;entryDy=0;" edge="1" parent="1" source="slGBocTgLF8m4l2l_OkK-8" target="slGBocTgLF8m4l2l_OkK-41">
          <mxGeometry relative="1" as="geometry">
            <mxPoint x="590" y="1070" as="targetPoint" />
            <Array as="points">
              <mxPoint x="600" y="505" />
              <mxPoint x="600" y="1070" />
              <mxPoint x="330" y="1070" />
            </Array>
          </mxGeometry>
        </mxCell>
        <mxCell id="slGBocTgLF8m4l2l_OkK-8" value="&lt;font style=&quot;font-size: 14px;&quot;&gt;&amp;nbsp;while (N &amp;gt; 0)&lt;/font&gt;" style="html=1;whiteSpace=wrap;aspect=fixed;shape=isoRectangle;" vertex="1" parent="1">
          <mxGeometry x="255" y="460" width="150" height="90" as="geometry" />
        </mxCell>
        <mxCell id="slGBocTgLF8m4l2l_OkK-19" value="" style="edgeStyle=orthogonalEdgeStyle;rounded=0;orthogonalLoop=1;jettySize=auto;html=1;" edge="1" parent="1" source="slGBocTgLF8m4l2l_OkK-9" target="slGBocTgLF8m4l2l_OkK-18">
          <mxGeometry relative="1" as="geometry" />
        </mxCell>
        <mxCell id="slGBocTgLF8m4l2l_OkK-9" value="&lt;font style=&quot;font-size: 14px;&quot;&gt;digit = N % 10&lt;/font&gt;" style="whiteSpace=wrap;html=1;" vertex="1" parent="1">
          <mxGeometry x="270" y="600" width="120" height="60" as="geometry" />
        </mxCell>
        <mxCell id="slGBocTgLF8m4l2l_OkK-14" value="" style="edgeStyle=orthogonalEdgeStyle;rounded=0;orthogonalLoop=1;jettySize=auto;html=1;" edge="1" parent="1" source="slGBocTgLF8m4l2l_OkK-11" target="slGBocTgLF8m4l2l_OkK-4">
          <mxGeometry relative="1" as="geometry" />
        </mxCell>
        <mxCell id="slGBocTgLF8m4l2l_OkK-11" value="&lt;font style=&quot;font-size: 14px;&quot;&gt;digit = 0&lt;/font&gt;" style="rounded=0;whiteSpace=wrap;html=1;" vertex="1" parent="1">
          <mxGeometry x="270" y="260" width="120" height="60" as="geometry" />
        </mxCell>
        <mxCell id="slGBocTgLF8m4l2l_OkK-15" value="&lt;font style=&quot;font-size: 18px;&quot;&gt;true&lt;/font&gt;" style="text;html=1;align=center;verticalAlign=middle;resizable=0;points=[];autosize=1;strokeColor=none;fillColor=none;" vertex="1" parent="1">
          <mxGeometry x="325" y="550" width="50" height="40" as="geometry" />
        </mxCell>
        <mxCell id="slGBocTgLF8m4l2l_OkK-31" style="edgeStyle=orthogonalEdgeStyle;rounded=0;orthogonalLoop=1;jettySize=auto;html=1;entryX=0.5;entryY=0;entryDx=0;entryDy=0;" edge="1" parent="1" source="slGBocTgLF8m4l2l_OkK-18" target="slGBocTgLF8m4l2l_OkK-20">
          <mxGeometry relative="1" as="geometry" />
        </mxCell>
        <mxCell id="slGBocTgLF8m4l2l_OkK-34" style="edgeStyle=orthogonalEdgeStyle;rounded=0;orthogonalLoop=1;jettySize=auto;html=1;" edge="1" parent="1" source="slGBocTgLF8m4l2l_OkK-18">
          <mxGeometry relative="1" as="geometry">
            <mxPoint x="190" y="900" as="targetPoint" />
          </mxGeometry>
        </mxCell>
        <mxCell id="slGBocTgLF8m4l2l_OkK-18" value="&lt;font style=&quot;font-size: 14px;&quot;&gt;if (digit == 9)&lt;/font&gt;" style="html=1;whiteSpace=wrap;aspect=fixed;shape=isoRectangle;" vertex="1" parent="1">
          <mxGeometry x="255" y="700" width="150" height="90" as="geometry" />
        </mxCell>
        <mxCell id="slGBocTgLF8m4l2l_OkK-23" style="edgeStyle=orthogonalEdgeStyle;rounded=0;orthogonalLoop=1;jettySize=auto;html=1;" edge="1" parent="1" source="slGBocTgLF8m4l2l_OkK-20">
          <mxGeometry relative="1" as="geometry">
            <mxPoint x="480" y="900" as="targetPoint" />
          </mxGeometry>
        </mxCell>
        <mxCell id="slGBocTgLF8m4l2l_OkK-20" value="&lt;font style=&quot;font-size: 14px;&quot;&gt;result *= digit&lt;/font&gt;" style="whiteSpace=wrap;html=1;" vertex="1" parent="1">
          <mxGeometry x="420" y="790" width="120" height="60" as="geometry" />
        </mxCell>
        <mxCell id="slGBocTgLF8m4l2l_OkK-22" value="&lt;font style=&quot;font-size: 18px;&quot;&gt;true&lt;/font&gt;" style="text;html=1;align=center;verticalAlign=middle;resizable=0;points=[];autosize=1;strokeColor=none;fillColor=none;" vertex="1" parent="1">
          <mxGeometry x="414" y="710" width="50" height="40" as="geometry" />
        </mxCell>
        <mxCell id="slGBocTgLF8m4l2l_OkK-26" value="" style="endArrow=none;html=1;rounded=0;" edge="1" parent="1">
          <mxGeometry width="50" height="50" relative="1" as="geometry">
            <mxPoint x="190" y="900" as="sourcePoint" />
            <mxPoint x="480" y="900" as="targetPoint" />
          </mxGeometry>
        </mxCell>
        <mxCell id="slGBocTgLF8m4l2l_OkK-32" value="&lt;font style=&quot;font-size: 18px;&quot;&gt;false&lt;/font&gt;" style="text;html=1;align=center;verticalAlign=middle;resizable=0;points=[];autosize=1;strokeColor=none;fillColor=none;" vertex="1" parent="1">
          <mxGeometry x="190" y="710" width="60" height="40" as="geometry" />
        </mxCell>
        <mxCell id="slGBocTgLF8m4l2l_OkK-38" style="edgeStyle=orthogonalEdgeStyle;rounded=0;orthogonalLoop=1;jettySize=auto;html=1;exitX=0.5;exitY=1;exitDx=0;exitDy=0;movable=1;resizable=1;rotatable=1;deletable=1;editable=1;locked=0;connectable=1;entryX=0.019;entryY=0.478;entryDx=0;entryDy=0;entryPerimeter=0;" edge="1" parent="1">
          <mxGeometry relative="1" as="geometry">
            <mxPoint x="252.8499999999999" y="503.02" as="targetPoint" />
            <mxPoint x="325" y="1000" as="sourcePoint" />
            <Array as="points">
              <mxPoint x="325" y="1020" />
              <mxPoint x="145" y="1020" />
              <mxPoint x="145" y="503" />
            </Array>
          </mxGeometry>
        </mxCell>
        <mxCell id="slGBocTgLF8m4l2l_OkK-35" value="&lt;font style=&quot;font-size: 14px;&quot;&gt;N /= 10&lt;/font&gt;" style="rounded=0;whiteSpace=wrap;html=1;" vertex="1" parent="1">
          <mxGeometry x="270" y="940" width="120" height="60" as="geometry" />
        </mxCell>
        <mxCell id="slGBocTgLF8m4l2l_OkK-36" value="" style="endArrow=classic;html=1;rounded=0;" edge="1" parent="1">
          <mxGeometry width="50" height="50" relative="1" as="geometry">
            <mxPoint x="329.58" y="900" as="sourcePoint" />
            <mxPoint x="329.58" y="940" as="targetPoint" />
          </mxGeometry>
        </mxCell>
        <mxCell id="slGBocTgLF8m4l2l_OkK-48" style="edgeStyle=orthogonalEdgeStyle;rounded=0;orthogonalLoop=1;jettySize=auto;html=1;exitX=0.5;exitY=1;exitDx=0;exitDy=0;entryX=0.5;entryY=0;entryDx=0;entryDy=0;" edge="1" parent="1" source="slGBocTgLF8m4l2l_OkK-41" target="slGBocTgLF8m4l2l_OkK-47">
          <mxGeometry relative="1" as="geometry" />
        </mxCell>
        <mxCell id="slGBocTgLF8m4l2l_OkK-41" value="&lt;font style=&quot;font-size: 14px;&quot;&gt;Виведення result&lt;/font&gt;" style="shape=parallelogram;perimeter=parallelogramPerimeter;whiteSpace=wrap;html=1;fixedSize=1;" vertex="1" parent="1">
          <mxGeometry x="260" y="1110" width="140" height="70" as="geometry" />
        </mxCell>
        <mxCell id="slGBocTgLF8m4l2l_OkK-47" value="&lt;font style=&quot;font-size: 14px;&quot;&gt;Кінець&lt;/font&gt;" style="ellipse;whiteSpace=wrap;html=1;" vertex="1" parent="1">
          <mxGeometry x="270" y="1220" width="120" height="80" as="geometry" />
        </mxCell>
        <mxCell id="slGBocTgLF8m4l2l_OkK-49" value="&lt;font style=&quot;font-size: 18px;&quot;&gt;false&lt;/font&gt;" style="text;html=1;align=center;verticalAlign=middle;resizable=0;points=[];autosize=1;strokeColor=none;fillColor=none;" vertex="1" parent="1">
          <mxGeometry x="459" y="470" width="60" height="40" as="geometry" />
        </mxCell>
      </root>
    </mxGraphModel>
  </diagram>
</mxfile>
